<svg id="svg" version="1.1" xmlns="http://www.w3.org/2000/svg" xmlns:xlink="http://www.w3.org/1999/xlink" width="400" height="400" viewBox="0, 0, 400,400"><g id="svgg"><path id="path0" d="M39.600 259.546 C 39.600 259.737,38.385 259.998,36.900 260.126 C 33.713 260.402,33.469 260.456,31.451 261.329 C 30.599 261.698,29.752 262.000,29.569 262.000 C 28.904 262.000,24.000 264.510,24.000 264.851 C 24.000 265.043,23.807 265.200,23.572 265.200 C 21.123 265.200,9.200 277.139,9.200 279.591 C 9.200 279.816,9.020 280.000,8.800 280.000 C 8.580 280.000,8.400 280.270,8.400 280.600 C 8.400 280.930,8.220 281.200,8.000 281.200 C 7.780 281.200,7.600 281.650,7.600 282.200 C 7.600 282.750,7.420 283.200,7.200 283.200 C 6.980 283.200,6.800 283.560,6.800 284.000 C 6.800 284.440,6.620 284.800,6.400 284.800 C 6.180 284.800,6.000 285.149,6.000 285.576 C 6.000 286.003,5.820 286.464,5.600 286.600 C 5.380 286.736,5.200 287.287,5.200 287.824 C 5.200 288.361,5.020 288.800,4.800 288.800 C 4.580 288.800,4.400 289.520,4.400 290.400 C 4.400 291.280,4.220 292.000,4.000 292.000 C 3.780 292.000,3.600 292.889,3.600 293.976 C 3.600 295.063,3.420 296.064,3.200 296.200 C 2.663 296.532,2.663 307.200,3.200 307.200 C 3.420 307.200,3.600 308.179,3.600 309.376 C 3.600 310.573,3.780 311.664,4.000 311.800 C 4.220 311.936,4.400 312.566,4.400 313.200 C 4.400 313.834,4.580 314.464,4.800 314.600 C 5.020 314.736,5.200 315.287,5.200 315.824 C 5.200 316.361,5.380 316.800,5.600 316.800 C 5.820 316.800,6.000 317.155,6.000 317.588 C 6.000 318.021,6.360 319.017,6.800 319.800 C 7.240 320.583,7.600 321.489,7.600 321.812 C 7.600 322.135,7.780 322.400,8.000 322.400 C 8.220 322.400,8.400 322.670,8.400 323.000 C 8.400 323.330,8.580 323.600,8.800 323.600 C 9.020 323.600,9.200 323.870,9.200 324.200 C 9.200 324.530,9.380 324.800,9.600 324.800 C 9.820 324.800,10.000 324.987,10.000 325.216 C 10.000 325.629,11.057 327.228,12.600 329.150 C 13.951 330.833,19.305 336.028,19.494 335.840 C 19.592 335.742,20.222 336.188,20.895 336.831 C 21.568 337.474,22.347 338.000,22.626 338.000 C 22.905 338.000,23.193 338.140,23.267 338.310 C 23.509 338.874,29.307 341.600,30.263 341.600 C 30.778 341.600,31.200 341.780,31.200 342.000 C 31.200 342.220,31.830 342.400,32.600 342.400 C 33.370 342.400,34.000 342.580,34.000 342.800 C 34.000 343.020,34.619 343.200,35.376 343.200 C 36.133 343.200,36.864 343.380,37.000 343.600 C 37.136 343.820,38.677 344.000,40.424 344.000 C 42.461 344.000,43.600 344.157,43.600 344.439 C 43.600 344.734,44.286 344.793,45.700 344.619 C 46.855 344.477,49.285 344.266,51.100 344.151 C 52.915 344.036,54.400 343.774,54.400 343.571 C 54.400 343.367,55.109 343.200,55.976 343.200 C 56.843 343.200,57.664 343.020,57.800 342.800 C 57.936 342.580,58.476 342.400,59.000 342.400 C 59.524 342.400,60.051 342.240,60.172 342.045 C 60.293 341.850,61.026 341.572,61.801 341.426 C 62.577 341.281,63.813 340.585,64.548 339.881 C 65.283 339.176,66.985 337.917,68.330 337.083 C 69.676 336.248,71.927 334.583,73.333 333.383 C 74.740 332.182,76.076 331.200,76.303 331.200 C 76.893 331.200,79.200 328.971,79.200 328.400 C 79.200 328.137,79.695 327.444,80.300 326.860 C 80.905 326.277,81.670 325.260,81.999 324.600 C 82.329 323.940,82.690 323.310,82.802 323.200 C 83.342 322.668,85.600 317.800,85.600 317.167 C 85.600 316.771,85.759 316.349,85.952 316.230 C 86.146 316.110,86.424 315.514,86.570 314.906 C 86.716 314.298,87.023 313.080,87.253 312.200 C 88.659 306.806,88.858 293.777,87.547 292.967 C 87.356 292.849,87.200 292.144,87.200 291.400 C 87.200 290.656,87.020 289.936,86.800 289.800 C 86.580 289.664,86.400 289.124,86.400 288.600 C 86.400 288.076,86.220 287.536,86.000 287.400 C 85.780 287.264,85.600 286.809,85.600 286.389 C 85.600 285.968,85.240 284.983,84.800 284.200 C 84.360 283.417,84.000 282.511,84.000 282.188 C 84.000 281.865,83.854 281.600,83.675 281.600 C 83.496 281.600,83.105 280.978,82.807 280.218 C 82.509 279.458,82.115 278.929,81.932 279.042 C 81.750 279.155,81.600 279.049,81.600 278.807 C 81.600 278.220,80.064 276.069,78.700 274.746 C 78.095 274.159,77.600 273.481,77.600 273.240 C 77.600 272.998,77.450 272.800,77.268 272.800 C 77.085 272.800,76.694 272.350,76.400 271.800 C 76.106 271.250,75.703 270.800,75.506 270.800 C 75.308 270.800,74.484 270.162,73.673 269.383 C 72.863 268.603,71.705 267.665,71.100 267.297 C 70.495 266.929,70.000 266.486,70.000 266.314 C 70.000 266.141,69.730 266.000,69.400 266.000 C 69.070 266.000,68.800 265.854,68.800 265.675 C 68.800 265.496,68.170 265.102,67.400 264.800 C 66.630 264.498,66.000 264.148,66.000 264.023 C 66.000 263.299,57.523 260.374,54.700 260.123 C 53.215 259.992,52.000 259.730,52.000 259.542 C 52.000 259.354,49.210 259.200,45.800 259.200 C 42.390 259.200,39.600 259.356,39.600 259.546 " stroke="none" fill="#7383bc" fill-rule="evenodd"></path><path id="path1" d="M348.000 259.545 C 348.000 259.734,346.610 260.016,344.911 260.170 C 343.212 260.324,341.637 260.586,341.411 260.753 C 341.185 260.919,340.190 261.302,339.200 261.602 C 338.210 261.903,336.950 262.435,336.400 262.784 C 335.850 263.134,334.458 263.865,333.306 264.410 C 332.155 264.954,331.210 265.535,331.206 265.700 C 331.203 265.865,331.022 266.000,330.805 266.000 C 330.355 266.000,329.334 266.781,327.144 268.800 C 324.821 270.941,324.505 271.171,324.243 270.909 C 324.109 270.776,324.000 270.977,324.000 271.357 C 324.000 271.737,323.847 271.953,323.660 271.837 C 323.473 271.722,323.068 272.116,322.760 272.714 C 322.452 273.311,321.525 274.461,320.700 275.269 C 319.875 276.076,319.200 277.021,319.200 277.369 C 319.200 277.716,319.020 278.000,318.800 278.000 C 318.580 278.000,318.400 278.270,318.400 278.600 C 318.400 278.930,318.247 279.200,318.060 279.200 C 317.873 279.200,317.109 280.415,316.362 281.900 C 315.615 283.385,314.868 284.660,314.702 284.733 C 314.536 284.807,314.400 285.381,314.400 286.010 C 314.400 286.638,314.220 287.264,314.000 287.400 C 313.780 287.536,313.600 288.076,313.600 288.600 C 313.600 289.124,313.420 289.664,313.200 289.800 C 312.980 289.936,312.800 290.667,312.800 291.424 C 312.800 292.181,312.644 292.800,312.454 292.800 C 311.587 292.800,311.254 303.328,311.972 308.000 C 312.226 309.650,312.535 311.676,312.659 312.503 C 312.783 313.329,313.045 314.105,313.242 314.226 C 313.439 314.348,313.600 314.876,313.600 315.400 C 313.600 315.924,313.780 316.464,314.000 316.600 C 314.220 316.736,314.400 317.197,314.400 317.624 C 314.400 318.051,314.580 318.400,314.800 318.400 C 315.020 318.400,315.200 318.749,315.200 319.176 C 315.200 319.603,315.380 320.064,315.600 320.200 C 315.820 320.336,316.000 320.714,316.000 321.040 C 316.000 321.367,316.360 322.020,316.800 322.492 C 317.240 322.964,317.600 323.587,317.600 323.875 C 317.600 324.164,317.780 324.400,318.000 324.400 C 318.220 324.400,318.400 324.643,318.400 324.941 C 318.400 325.238,318.940 326.046,319.600 326.737 C 320.260 327.428,320.800 328.182,320.800 328.413 C 320.800 328.795,326.019 334.123,327.858 335.618 C 329.457 336.919,332.363 338.800,332.772 338.800 C 333.007 338.800,333.200 338.980,333.200 339.200 C 333.200 339.420,333.560 339.600,334.000 339.600 C 334.440 339.600,334.800 339.780,334.800 340.000 C 334.800 340.220,335.160 340.400,335.600 340.400 C 336.040 340.400,336.400 340.569,336.400 340.775 C 336.400 340.982,337.212 341.273,338.205 341.422 C 339.198 341.571,340.108 341.852,340.229 342.046 C 340.349 342.241,340.977 342.400,341.624 342.400 C 342.271 342.400,342.800 342.580,342.800 342.800 C 342.800 343.020,343.419 343.200,344.176 343.200 C 344.933 343.200,345.664 343.380,345.800 343.600 C 345.936 343.820,347.477 344.000,349.224 344.000 C 351.075 344.000,352.400 344.167,352.400 344.400 C 352.400 344.620,353.300 344.800,354.400 344.800 C 355.500 344.800,356.400 344.620,356.400 344.400 C 356.400 344.163,357.867 344.000,360.000 344.000 C 362.133 344.000,363.600 343.837,363.600 343.600 C 363.600 343.380,364.230 343.200,365.000 343.200 C 365.770 343.200,366.400 343.020,366.400 342.800 C 366.400 342.580,366.940 342.400,367.600 342.400 C 368.260 342.400,368.800 342.244,368.800 342.053 C 368.800 341.862,369.561 341.603,370.491 341.478 C 371.422 341.354,372.247 341.060,372.325 340.826 C 372.403 340.592,372.767 340.396,373.133 340.391 C 373.500 340.386,374.250 340.030,374.800 339.600 C 375.350 339.170,376.025 338.814,376.300 338.809 C 376.575 338.804,376.800 338.620,376.800 338.400 C 376.800 338.180,377.120 338.000,377.512 338.000 C 377.903 338.000,378.483 337.640,378.800 337.200 C 379.117 336.760,379.597 336.400,379.866 336.400 C 380.441 336.400,388.400 328.586,388.400 328.021 C 388.400 327.809,388.805 327.223,389.300 326.718 C 389.795 326.213,390.560 325.080,391.000 324.200 C 391.440 323.320,391.935 322.540,392.100 322.467 C 392.265 322.393,392.400 322.114,392.400 321.846 C 392.400 321.137,393.349 319.207,393.700 319.203 C 393.865 319.201,394.000 318.660,394.000 318.000 C 394.000 317.340,394.180 316.800,394.400 316.800 C 394.620 316.800,394.800 316.350,394.800 315.800 C 394.800 315.250,394.980 314.800,395.200 314.800 C 395.420 314.800,395.600 314.181,395.600 313.424 C 395.600 312.667,395.780 311.936,396.000 311.800 C 396.220 311.664,396.400 310.573,396.400 309.376 C 396.400 308.179,396.580 307.200,396.800 307.200 C 397.047 307.200,397.200 305.141,397.200 301.824 C 397.200 298.671,397.035 296.345,396.800 296.200 C 396.580 296.064,396.400 295.063,396.400 293.976 C 396.400 292.889,396.220 292.000,396.000 292.000 C 395.780 292.000,395.600 291.280,395.600 290.400 C 395.600 289.520,395.420 288.800,395.200 288.800 C 394.980 288.800,394.800 288.260,394.800 287.600 C 394.800 286.940,394.620 286.400,394.400 286.400 C 394.180 286.400,394.000 286.045,394.000 285.612 C 394.000 285.179,393.663 284.224,393.250 283.489 C 391.996 281.256,391.035 279.411,391.015 279.200 C 391.006 279.090,390.458 278.284,389.799 277.408 C 387.974 274.984,387.462 274.345,386.700 273.540 C 386.315 273.133,386.097 272.800,386.215 272.800 C 386.334 272.800,385.597 271.990,384.579 271.000 C 383.560 270.010,382.563 269.200,382.363 269.200 C 382.163 269.200,382.000 269.020,382.000 268.800 C 382.000 268.580,381.818 268.400,381.596 268.400 C 381.374 268.400,380.628 267.860,379.937 267.200 C 379.246 266.540,378.438 266.000,378.141 266.000 C 377.843 266.000,377.600 265.808,377.600 265.573 C 377.600 265.333,377.261 265.254,376.827 265.391 C 376.343 265.545,374.888 265.058,372.927 264.086 C 371.207 263.233,368.450 262.137,366.800 261.650 C 365.150 261.162,363.487 260.592,363.105 260.382 C 362.723 260.172,362.059 260.000,361.629 260.000 C 361.199 260.000,360.736 259.820,360.600 259.600 C 360.295 259.106,348.000 259.052,348.000 259.545 " stroke="none" fill="#44b15c" fill-rule="evenodd"></path><path id="path2" d="M190.000 0.446 C 189.010 0.659,187.615 0.935,186.900 1.060 C 186.185 1.185,185.600 1.448,185.600 1.644 C 185.600 1.840,185.251 2.000,184.824 2.000 C 184.397 2.000,183.936 2.180,183.800 2.400 C 183.664 2.620,183.203 2.800,182.776 2.800 C 182.349 2.800,182.000 2.980,182.000 3.200 C 182.000 3.420,181.766 3.600,181.480 3.600 C 180.744 3.600,178.807 4.541,178.803 4.900 C 178.801 5.065,178.530 5.200,178.200 5.200 C 177.870 5.200,177.600 5.380,177.600 5.600 C 177.600 5.820,177.330 6.000,177.000 6.000 C 176.670 6.000,176.400 6.180,176.400 6.400 C 176.400 6.620,176.175 6.803,175.900 6.806 C 175.625 6.810,174.320 7.801,173.000 9.009 C 171.680 10.217,170.285 11.306,169.900 11.429 C 169.515 11.553,169.200 11.790,169.200 11.956 C 169.200 12.122,168.300 13.222,167.200 14.400 C 166.100 15.578,165.200 16.697,165.200 16.887 C 165.200 17.078,164.840 17.620,164.400 18.092 C 163.960 18.564,163.600 19.187,163.600 19.475 C 163.600 19.764,163.447 20.000,163.259 20.000 C 162.819 20.000,160.491 25.044,160.155 26.726 C 160.013 27.436,159.740 28.114,159.548 28.232 C 159.357 28.350,159.200 28.977,159.200 29.624 C 159.200 30.271,159.020 30.800,158.800 30.800 C 158.580 30.800,158.400 31.610,158.400 32.600 C 158.400 33.652,158.216 34.400,157.956 34.400 C 157.397 34.400,157.823 40.865,158.852 48.000 C 159.089 49.650,159.332 51.990,159.391 53.200 C 159.450 54.410,159.596 55.670,159.716 56.000 C 159.835 56.330,160.044 57.140,160.180 57.800 C 160.458 59.151,162.834 64.128,163.298 64.333 C 163.464 64.407,163.600 64.679,163.600 64.938 C 163.600 65.197,164.227 66.127,164.992 67.004 C 165.758 67.882,166.388 68.726,166.392 68.880 C 166.401 69.214,172.000 74.940,172.000 74.616 C 172.000 74.493,172.567 74.935,173.259 75.597 C 173.952 76.258,174.696 76.800,174.912 76.800 C 175.129 76.800,175.597 77.119,175.953 77.509 C 176.309 77.899,177.860 78.843,179.400 79.607 C 180.940 80.371,182.260 81.132,182.333 81.298 C 182.407 81.464,182.912 81.600,183.457 81.600 C 184.015 81.600,184.339 81.774,184.200 82.000 C 184.056 82.233,184.463 82.400,185.176 82.400 C 185.849 82.400,186.400 82.580,186.400 82.800 C 186.400 83.020,186.929 83.200,187.576 83.200 C 188.223 83.200,188.864 83.380,189.000 83.600 C 189.136 83.820,190.047 84.000,191.024 84.000 C 192.001 84.000,192.800 84.180,192.800 84.400 C 192.800 84.652,195.467 84.800,200.000 84.800 C 204.533 84.800,207.200 84.652,207.200 84.400 C 207.200 84.180,207.772 84.000,208.472 84.000 C 209.735 84.000,211.965 83.422,213.295 82.751 C 213.677 82.558,214.341 82.400,214.771 82.400 C 215.201 82.400,215.664 82.220,215.800 82.000 C 215.936 81.780,216.397 81.600,216.824 81.600 C 217.251 81.600,217.600 81.420,217.600 81.200 C 217.600 80.980,217.834 80.800,218.120 80.800 C 218.856 80.800,220.793 79.859,220.797 79.500 C 220.799 79.335,221.160 79.200,221.600 79.200 C 222.040 79.200,222.400 79.020,222.400 78.800 C 222.400 78.580,222.670 78.400,223.000 78.400 C 223.330 78.400,223.600 78.250,223.600 78.068 C 223.600 77.885,224.094 77.480,224.698 77.168 C 226.660 76.154,234.800 68.290,234.800 67.409 C 234.800 67.111,234.942 66.807,235.115 66.733 C 235.945 66.382,240.400 57.824,240.400 56.580 C 240.400 56.078,240.583 55.606,240.806 55.531 C 241.029 55.457,241.326 54.176,241.465 52.685 C 241.604 51.194,241.872 49.879,242.059 49.764 C 242.550 49.460,242.493 34.905,242.000 34.600 C 241.780 34.464,241.592 33.598,241.582 32.676 C 241.573 31.754,241.305 30.280,240.988 29.400 C 240.671 28.520,240.409 27.485,240.406 27.100 C 240.403 26.715,240.220 26.400,240.000 26.400 C 239.780 26.400,239.600 26.075,239.600 25.679 C 239.600 24.763,237.749 21.021,236.981 20.384 C 236.661 20.119,236.400 19.564,236.400 19.151 C 236.400 18.738,236.259 18.400,236.086 18.400 C 235.914 18.400,235.467 17.882,235.093 17.249 C 234.719 16.616,233.915 15.564,233.306 14.911 C 232.698 14.257,231.660 13.093,231.000 12.324 C 230.340 11.554,229.368 10.696,228.841 10.417 C 228.314 10.137,227.273 9.299,226.528 8.554 C 225.783 7.809,225.027 7.200,224.849 7.200 C 224.670 7.200,224.001 6.750,223.362 6.200 C 222.723 5.651,221.975 5.201,221.700 5.200 C 221.425 5.200,221.200 5.020,221.200 4.800 C 221.200 4.580,220.930 4.400,220.600 4.400 C 220.270 4.400,220.000 4.220,220.000 4.000 C 220.000 3.780,219.640 3.600,219.200 3.600 C 218.760 3.600,218.400 3.420,218.400 3.200 C 218.400 2.980,218.051 2.800,217.624 2.800 C 217.197 2.800,216.736 2.620,216.600 2.400 C 216.464 2.180,215.913 2.000,215.376 2.000 C 214.839 2.000,214.400 1.820,214.400 1.600 C 214.400 1.380,213.806 1.200,213.080 1.200 C 212.354 1.200,211.535 0.975,211.260 0.700 C 210.635 0.075,192.725 -0.139,190.000 0.446 " stroke="none" fill="#ebbb14" fill-rule="evenodd"></path><path id="path3" d="M157.640 42.000 C 157.629 44.368,158.305 49.315,159.196 53.400 C 159.685 55.640,159.464 52.721,158.667 46.400 C 158.348 43.870,158.157 41.682,158.244 41.537 C 158.331 41.392,158.233 40.852,158.026 40.337 C 157.734 39.607,157.648 39.974,157.640 42.000 " stroke="none" fill="#a48c34" fill-rule="evenodd"></path><path id="path4" d="M155.200 40.000 C 155.200 40.220,154.480 40.400,153.600 40.400 C 152.720 40.400,152.000 40.580,152.000 40.800 C 152.000 41.020,151.280 41.200,150.400 41.200 C 149.520 41.200,148.800 41.380,148.800 41.600 C 148.800 41.820,148.260 42.000,147.600 42.000 C 146.940 42.000,146.400 42.180,146.400 42.400 C 146.400 42.620,145.860 42.800,145.200 42.800 C 144.540 42.800,144.000 42.955,144.000 43.144 C 144.000 43.334,143.056 43.600,141.902 43.737 C 140.749 43.874,139.744 44.169,139.669 44.393 C 139.594 44.617,139.109 44.800,138.590 44.800 C 138.072 44.800,137.536 44.980,137.400 45.200 C 137.264 45.420,136.801 45.600,136.371 45.600 C 135.941 45.600,135.277 45.759,134.895 45.953 C 134.179 46.317,132.554 47.011,130.800 47.700 C 130.250 47.916,129.487 48.252,129.105 48.447 C 128.723 48.641,128.138 48.800,127.805 48.800 C 127.472 48.800,127.200 48.980,127.200 49.200 C 127.200 49.420,126.840 49.600,126.400 49.600 C 125.960 49.600,125.600 49.780,125.600 50.000 C 125.600 50.220,125.328 50.400,124.995 50.400 C 124.407 50.400,123.982 50.567,122.105 51.538 C 121.613 51.792,120.938 52.000,120.605 52.000 C 120.272 52.000,120.000 52.180,120.000 52.400 C 120.000 52.620,119.640 52.800,119.200 52.800 C 118.760 52.800,118.400 52.980,118.400 53.200 C 118.400 53.420,118.040 53.600,117.600 53.600 C 117.160 53.600,116.800 53.780,116.800 54.000 C 116.800 54.220,116.440 54.400,116.000 54.400 C 115.560 54.400,115.200 54.546,115.200 54.725 C 115.200 54.904,114.570 55.298,113.800 55.600 C 113.030 55.902,112.400 56.296,112.400 56.475 C 112.400 56.654,112.130 56.800,111.800 56.800 C 111.470 56.800,111.200 56.980,111.200 57.200 C 111.200 57.420,110.930 57.600,110.600 57.600 C 110.270 57.600,110.000 57.780,110.000 58.000 C 110.000 58.220,109.640 58.400,109.200 58.400 C 108.760 58.400,108.400 58.580,108.400 58.800 C 108.400 59.020,108.040 59.200,107.600 59.200 C 107.160 59.200,106.800 59.335,106.799 59.500 C 106.799 59.665,105.719 60.326,104.399 60.970 C 103.080 61.613,102.000 62.288,102.000 62.470 C 102.000 62.651,101.764 62.800,101.475 62.800 C 101.187 62.800,100.564 63.160,100.092 63.600 C 99.620 64.040,99.022 64.400,98.764 64.400 C 98.505 64.400,98.003 64.716,97.647 65.103 C 97.291 65.489,96.505 66.060,95.900 66.370 C 95.295 66.681,94.800 67.085,94.800 67.268 C 94.800 67.450,94.570 67.600,94.288 67.600 C 94.007 67.600,93.517 67.960,93.200 68.400 C 92.883 68.840,92.420 69.200,92.171 69.200 C 91.922 69.200,91.154 69.740,90.463 70.400 C 89.772 71.060,89.063 71.600,88.888 71.600 C 88.712 71.600,87.772 72.320,86.800 73.200 C 85.828 74.080,84.884 74.800,84.703 74.800 C 84.522 74.800,83.773 75.385,83.040 76.100 C 82.306 76.815,81.191 77.760,80.561 78.200 C 78.943 79.330,60.400 97.881,60.400 98.370 C 60.400 98.592,59.770 99.403,59.000 100.173 C 58.230 100.943,57.600 101.759,57.600 101.987 C 57.600 102.214,57.420 102.400,57.200 102.400 C 56.980 102.400,56.800 102.598,56.800 102.840 C 56.800 103.081,56.260 103.783,55.600 104.400 C 54.940 105.017,54.400 105.737,54.400 106.000 C 54.400 106.263,53.860 106.983,53.200 107.600 C 52.540 108.217,52.000 108.911,52.000 109.142 C 52.000 109.374,51.595 109.990,51.100 110.512 C 49.646 112.044,48.800 113.181,48.800 113.605 C 48.800 113.822,48.620 114.000,48.400 114.000 C 48.180 114.000,48.000 114.270,48.000 114.600 C 48.000 114.930,47.850 115.200,47.668 115.200 C 47.485 115.200,47.085 115.695,46.780 116.300 C 46.474 116.905,45.749 118.120,45.167 119.000 C 44.585 119.880,43.983 121.005,43.828 121.500 C 43.673 121.995,43.378 122.400,43.173 122.400 C 42.968 122.400,42.800 122.760,42.800 123.200 C 42.800 123.640,42.620 124.000,42.400 124.000 C 42.180 124.000,42.000 124.294,42.000 124.653 C 42.000 125.012,41.671 125.597,41.270 125.953 C 40.868 126.309,40.284 127.185,39.972 127.900 C 39.660 128.615,39.269 129.200,39.102 129.200 C 38.936 129.200,38.800 129.560,38.800 130.000 C 38.800 130.440,38.620 130.800,38.400 130.800 C 38.180 130.800,38.000 131.160,38.000 131.600 C 38.000 132.040,37.820 132.400,37.600 132.400 C 37.380 132.400,37.200 132.760,37.200 133.200 C 37.200 133.640,37.020 134.000,36.800 134.000 C 36.580 134.000,36.400 134.360,36.400 134.800 C 36.400 135.240,36.220 135.600,36.000 135.600 C 35.780 135.600,35.600 135.960,35.600 136.400 C 35.600 136.840,35.420 137.200,35.200 137.200 C 34.980 137.200,34.800 137.560,34.800 138.000 C 34.800 138.440,34.620 138.800,34.400 138.800 C 34.180 138.800,34.000 139.160,34.000 139.600 C 34.000 140.040,33.820 140.400,33.600 140.400 C 33.380 140.400,33.200 140.760,33.200 141.200 C 33.200 141.640,33.020 142.000,32.800 142.000 C 32.580 142.000,32.400 142.272,32.400 142.605 C 32.400 142.938,32.243 143.523,32.050 143.905 C 30.486 147.011,30.000 148.179,30.000 148.838 C 30.000 149.257,29.859 149.600,29.687 149.600 C 29.515 149.600,29.129 150.455,28.829 151.500 C 28.529 152.545,28.141 153.584,27.968 153.810 C 27.794 154.035,27.527 155.160,27.374 156.310 C 27.222 157.459,26.940 158.400,26.748 158.400 C 26.557 158.400,26.400 158.749,26.400 159.176 C 26.400 159.603,26.220 160.064,26.000 160.200 C 25.780 160.336,25.600 160.977,25.600 161.624 C 25.600 162.271,25.420 162.800,25.200 162.800 C 24.980 162.800,24.800 163.340,24.800 164.000 C 24.800 164.660,24.620 165.200,24.400 165.200 C 24.180 165.200,24.000 165.830,24.000 166.600 C 24.000 167.370,23.820 168.000,23.600 168.000 C 23.380 168.000,23.200 168.619,23.200 169.376 C 23.200 170.133,23.020 170.864,22.800 171.000 C 22.580 171.136,22.400 171.867,22.400 172.624 C 22.400 173.381,22.220 174.000,22.000 174.000 C 21.780 174.000,21.600 174.799,21.600 175.776 C 21.600 176.753,21.420 177.664,21.200 177.800 C 20.980 177.936,20.800 178.746,20.800 179.600 C 20.800 180.454,20.620 181.264,20.400 181.400 C 20.180 181.536,20.000 182.537,20.000 183.624 C 20.000 184.711,19.820 185.600,19.600 185.600 C 19.378 185.600,19.200 186.659,19.200 187.976 C 19.200 189.283,19.020 190.464,18.800 190.600 C 18.580 190.736,18.400 192.086,18.400 193.600 C 18.400 195.114,18.220 196.464,18.000 196.600 C 17.764 196.746,17.600 199.183,17.600 202.560 L 17.600 208.273 19.360 210.136 C 20.329 211.161,21.409 212.000,21.760 212.000 C 22.112 212.000,22.400 212.180,22.400 212.400 C 22.400 212.626,23.533 212.800,25.000 212.800 C 26.467 212.800,27.600 212.626,27.600 212.400 C 27.600 212.180,27.960 212.000,28.400 212.000 C 28.840 212.000,29.200 211.820,29.200 211.600 C 29.200 211.380,29.476 211.200,29.813 211.200 C 30.149 211.200,30.542 210.885,30.685 210.500 C 30.828 210.115,31.272 209.509,31.672 209.153 C 32.083 208.788,32.400 207.961,32.400 207.253 C 32.400 206.564,32.580 206.000,32.800 206.000 C 33.040 206.000,33.200 204.400,33.200 202.000 C 33.200 199.800,33.366 198.000,33.568 198.000 C 33.771 198.000,34.035 196.695,34.155 195.100 C 34.555 189.790,34.871 187.600,35.237 187.600 C 35.437 187.600,35.600 186.711,35.600 185.624 C 35.600 184.537,35.780 183.536,36.000 183.400 C 36.220 183.264,36.400 182.454,36.400 181.600 C 36.400 180.746,36.580 179.936,36.800 179.800 C 37.020 179.664,37.200 178.944,37.200 178.200 C 37.200 177.456,37.380 176.736,37.600 176.600 C 37.820 176.464,38.000 175.733,38.000 174.976 C 38.000 174.219,38.180 173.600,38.400 173.600 C 38.620 173.600,38.800 172.970,38.800 172.200 C 38.800 171.430,38.980 170.800,39.200 170.800 C 39.420 170.800,39.600 170.348,39.600 169.795 C 39.600 169.242,39.763 168.477,39.963 168.095 C 40.560 166.953,41.600 163.178,41.600 162.154 C 41.600 161.629,41.780 161.200,42.000 161.200 C 42.220 161.200,42.400 160.660,42.400 160.000 C 42.400 159.340,42.580 158.800,42.800 158.800 C 43.020 158.800,43.200 158.440,43.200 158.000 C 43.200 157.560,43.380 157.200,43.600 157.200 C 43.820 157.200,44.000 156.750,44.000 156.200 C 44.000 155.650,44.180 155.200,44.400 155.200 C 44.620 155.200,44.800 154.750,44.800 154.200 C 44.800 153.650,44.980 153.200,45.200 153.200 C 45.420 153.200,45.600 152.750,45.600 152.200 C 45.600 151.650,45.780 151.200,46.000 151.200 C 46.220 151.200,46.400 150.840,46.400 150.400 C 46.400 149.960,46.580 149.600,46.800 149.600 C 47.020 149.600,47.200 149.240,47.200 148.800 C 47.200 148.360,47.380 148.000,47.600 148.000 C 47.820 148.000,48.000 147.728,48.000 147.395 C 48.000 147.062,48.180 146.432,48.400 145.995 C 48.620 145.558,48.980 144.842,49.200 144.405 C 49.420 143.968,49.600 143.338,49.600 143.005 C 49.600 142.672,49.780 142.400,50.000 142.400 C 50.220 142.400,50.400 142.145,50.400 141.833 C 50.400 141.522,50.535 141.207,50.700 141.133 C 50.865 141.060,51.405 140.235,51.900 139.300 C 52.395 138.365,53.205 136.835,53.700 135.900 C 54.195 134.965,54.690 134.110,54.800 134.000 C 54.910 133.890,55.437 132.990,55.970 132.000 C 56.504 131.010,57.044 130.110,57.170 130.000 C 57.638 129.593,58.800 127.259,58.800 126.727 C 58.800 126.424,59.160 125.917,59.600 125.600 C 60.040 125.283,60.400 124.793,60.400 124.512 C 60.400 124.230,60.550 124.000,60.732 124.000 C 60.915 124.000,61.319 123.505,61.630 122.900 C 61.940 122.295,62.511 121.509,62.897 121.153 C 63.284 120.797,63.600 120.302,63.600 120.053 C 63.600 119.804,63.780 119.600,64.000 119.600 C 64.220 119.600,64.400 119.418,64.400 119.196 C 64.400 118.974,64.940 118.228,65.600 117.537 C 66.260 116.846,66.800 116.126,66.800 115.937 C 66.800 115.748,67.340 115.028,68.000 114.337 C 68.660 113.646,69.200 112.914,69.200 112.709 C 69.200 112.505,69.875 111.676,70.700 110.869 C 71.525 110.061,72.719 108.705,73.354 107.856 C 74.876 105.820,88.553 92.118,90.588 90.592 C 91.461 89.936,92.878 88.725,93.736 87.900 C 94.594 87.075,95.473 86.400,95.688 86.400 C 95.903 86.400,96.583 85.860,97.200 85.200 C 97.817 84.540,98.492 84.000,98.701 84.000 C 98.910 84.000,99.646 83.460,100.337 82.800 C 101.028 82.140,101.825 81.600,102.108 81.600 C 102.391 81.600,102.883 81.240,103.200 80.800 C 103.517 80.360,104.007 80.000,104.288 80.000 C 104.570 80.000,104.800 79.820,104.800 79.600 C 104.800 79.380,105.070 79.200,105.400 79.200 C 105.730 79.200,106.000 79.020,106.000 78.800 C 106.000 78.580,106.270 78.400,106.600 78.400 C 106.930 78.400,107.200 78.220,107.200 78.000 C 107.200 77.780,107.470 77.600,107.800 77.600 C 108.130 77.600,108.400 77.420,108.400 77.200 C 108.400 76.980,108.630 76.800,108.912 76.800 C 109.193 76.800,109.683 76.440,110.000 76.000 C 110.317 75.560,110.824 75.200,111.127 75.200 C 111.628 75.200,113.921 74.079,114.400 73.600 C 114.796 73.204,117.015 71.946,117.700 71.729 C 118.085 71.607,118.400 71.348,118.400 71.153 C 118.400 70.959,118.745 70.800,119.167 70.800 C 119.588 70.800,119.993 70.664,120.067 70.498 C 120.140 70.332,121.460 69.568,123.000 68.800 C 124.540 68.032,125.860 67.268,125.933 67.102 C 126.007 66.936,126.412 66.800,126.833 66.800 C 127.255 66.800,127.600 66.620,127.600 66.400 C 127.600 66.180,127.960 66.000,128.400 66.000 C 128.840 66.000,129.200 65.820,129.200 65.600 C 129.200 65.380,129.560 65.200,130.000 65.200 C 130.440 65.200,130.800 65.020,130.800 64.800 C 130.800 64.580,131.239 64.400,131.776 64.400 C 132.313 64.400,132.864 64.220,133.000 64.000 C 133.136 63.780,133.597 63.600,134.024 63.600 C 134.451 63.600,134.800 63.420,134.800 63.200 C 134.800 62.980,135.160 62.800,135.600 62.800 C 136.040 62.800,136.400 62.620,136.400 62.400 C 136.400 62.180,136.839 62.000,137.376 62.000 C 137.913 62.000,138.464 61.820,138.600 61.600 C 138.736 61.380,139.197 61.200,139.624 61.200 C 140.051 61.200,140.400 61.020,140.400 60.800 C 140.400 60.580,140.850 60.400,141.400 60.400 C 141.950 60.400,142.400 60.220,142.400 60.000 C 142.400 59.780,142.940 59.600,143.600 59.600 C 144.260 59.600,144.800 59.420,144.800 59.200 C 144.800 58.980,145.229 58.800,145.754 58.800 C 146.621 58.800,149.794 57.967,151.800 57.212 C 153.762 56.474,155.523 56.000,156.305 56.000 C 156.771 56.000,157.264 55.820,157.400 55.600 C 157.536 55.380,158.015 55.200,158.464 55.200 C 159.392 55.200,159.379 54.778,158.247 48.200 C 157.907 46.220,157.622 43.475,157.614 42.100 L 157.600 39.600 156.400 39.600 C 155.740 39.600,155.200 39.780,155.200 40.000 M288.225 60.874 C 286.951 61.613,284.800 63.930,284.800 64.563 C 284.800 64.887,284.620 65.264,284.400 65.400 C 284.180 65.536,284.000 66.807,284.000 68.224 C 284.000 69.675,284.175 70.800,284.400 70.800 C 284.620 70.800,284.800 71.075,284.800 71.411 C 284.800 72.345,287.033 74.591,288.806 75.441 C 289.677 75.858,290.393 76.335,290.395 76.500 C 290.398 76.665,290.636 76.800,290.925 76.800 C 291.213 76.800,291.836 77.160,292.308 77.600 C 292.780 78.040,293.354 78.400,293.583 78.400 C 293.812 78.400,294.000 78.541,294.000 78.714 C 294.000 78.886,294.495 79.321,295.100 79.679 C 295.705 80.037,296.740 80.796,297.400 81.365 C 298.060 81.934,298.737 82.399,298.904 82.400 C 299.071 82.400,299.772 82.940,300.463 83.600 C 301.154 84.260,301.878 84.800,302.073 84.800 C 302.267 84.800,303.057 85.430,303.827 86.200 C 304.597 86.970,305.395 87.600,305.600 87.600 C 305.805 87.600,306.564 88.188,307.287 88.908 C 308.009 89.627,309.315 90.752,310.188 91.408 C 311.832 92.641,326.400 107.025,326.400 107.414 C 326.400 107.681,327.014 108.434,328.607 110.122 C 329.270 110.825,330.252 112.030,330.788 112.800 C 331.324 113.570,332.086 114.491,332.481 114.847 C 332.876 115.203,333.200 115.671,333.200 115.888 C 333.200 116.104,333.740 116.846,334.400 117.537 C 335.060 118.228,335.600 118.929,335.600 119.096 C 335.601 119.263,336.066 119.940,336.635 120.600 C 337.204 121.260,337.963 122.295,338.321 122.900 C 338.679 123.505,339.114 124.000,339.286 124.000 C 339.459 124.000,339.600 124.230,339.600 124.512 C 339.600 124.793,339.960 125.283,340.400 125.600 C 340.840 125.917,341.200 126.497,341.200 126.888 C 341.200 127.280,341.380 127.600,341.600 127.600 C 341.820 127.600,342.000 127.836,342.000 128.125 C 342.000 128.413,342.360 129.036,342.800 129.508 C 343.240 129.980,343.600 130.631,343.600 130.955 C 343.600 131.278,343.831 131.781,344.113 132.071 C 344.396 132.362,345.117 133.590,345.715 134.800 C 346.943 137.281,348.086 139.302,348.432 139.600 C 348.560 139.710,348.919 140.385,349.230 141.100 C 349.541 141.815,349.931 142.400,350.098 142.400 C 350.264 142.400,350.400 142.760,350.400 143.200 C 350.400 143.640,350.580 144.000,350.800 144.000 C 351.020 144.000,351.200 144.360,351.200 144.800 C 351.200 145.240,351.380 145.600,351.600 145.600 C 351.820 145.600,352.000 146.039,352.000 146.576 C 352.000 147.113,352.180 147.664,352.400 147.800 C 352.620 147.936,352.800 148.397,352.800 148.824 C 352.800 149.251,352.980 149.600,353.200 149.600 C 353.420 149.600,353.600 149.960,353.600 150.400 C 353.600 150.840,353.780 151.200,354.000 151.200 C 354.220 151.200,354.400 151.560,354.400 152.000 C 354.400 152.440,354.580 152.800,354.800 152.800 C 355.020 152.800,355.200 153.239,355.200 153.776 C 355.200 154.313,355.380 154.864,355.600 155.000 C 355.820 155.136,356.000 155.597,356.000 156.024 C 356.000 156.451,356.180 156.800,356.400 156.800 C 356.620 156.800,356.800 157.250,356.800 157.800 C 356.800 158.350,356.980 158.800,357.200 158.800 C 357.420 158.800,357.600 159.340,357.600 160.000 C 357.600 160.660,357.780 161.200,358.000 161.200 C 358.220 161.200,358.400 161.740,358.400 162.400 C 358.400 163.060,358.580 163.600,358.800 163.600 C 359.020 163.600,359.200 164.039,359.200 164.576 C 359.200 165.113,359.356 165.649,359.547 165.767 C 359.738 165.885,360.017 166.902,360.166 168.026 C 360.315 169.150,360.586 170.369,360.769 170.735 C 361.341 171.878,362.000 174.219,362.000 175.105 C 362.000 175.571,362.180 176.064,362.400 176.200 C 362.620 176.336,362.800 177.056,362.800 177.800 C 362.800 178.544,362.980 179.264,363.200 179.400 C 363.420 179.536,363.600 180.447,363.600 181.424 C 363.600 182.401,363.780 183.200,364.000 183.200 C 364.220 183.200,364.400 184.100,364.400 185.200 C 364.400 186.300,364.580 187.200,364.800 187.200 C 365.020 187.200,365.200 188.190,365.200 189.400 C 365.200 190.610,365.380 191.600,365.600 191.600 C 365.829 191.600,366.000 192.800,366.000 194.400 C 366.000 196.000,366.171 197.200,366.400 197.200 C 366.640 197.200,366.800 198.792,366.800 201.176 C 366.800 203.396,366.977 205.262,367.200 205.400 C 367.452 205.556,367.600 209.996,367.600 217.400 C 367.600 224.804,367.452 229.244,367.200 229.400 C 366.979 229.536,366.800 231.330,366.800 233.400 C 366.800 235.470,366.621 237.264,366.400 237.400 C 366.180 237.536,366.000 238.796,366.000 240.200 C 366.000 241.604,365.820 242.864,365.600 243.000 C 365.380 243.136,365.200 244.101,365.200 245.144 C 365.200 246.187,365.037 247.211,364.839 247.420 C 364.640 247.629,364.370 248.655,364.239 249.700 C 363.638 254.481,363.497 255.200,363.160 255.200 C 362.962 255.200,362.800 255.909,362.800 256.776 C 362.800 257.643,362.620 258.464,362.400 258.600 C 361.038 259.442,362.267 260.292,366.800 261.642 C 368.450 262.134,371.191 263.225,372.891 264.068 C 376.538 265.876,376.800 265.911,376.800 264.600 C 376.800 264.050,376.980 263.600,377.200 263.600 C 377.420 263.600,377.600 262.880,377.600 262.000 C 377.600 261.120,377.780 260.400,378.000 260.400 C 378.220 260.400,378.400 259.680,378.400 258.800 C 378.400 257.920,378.580 257.200,378.800 257.200 C 379.020 257.200,379.200 256.390,379.200 255.400 C 379.200 254.410,379.380 253.600,379.600 253.600 C 379.820 253.600,380.000 252.700,380.000 251.600 C 380.000 250.500,380.180 249.600,380.400 249.600 C 380.622 249.600,380.800 248.541,380.800 247.224 C 380.800 245.917,380.980 244.736,381.200 244.600 C 381.420 244.464,381.600 243.114,381.600 241.600 C 381.600 240.086,381.780 238.736,382.000 238.600 C 382.225 238.461,382.400 236.529,382.400 234.176 C 382.400 231.659,382.559 230.000,382.800 230.000 C 383.058 230.000,383.200 225.608,383.200 217.624 C 383.200 209.804,383.053 205.156,382.800 205.000 C 382.575 204.861,382.400 202.937,382.400 200.600 C 382.400 198.263,382.225 196.339,382.000 196.200 C 381.780 196.064,381.600 194.703,381.600 193.176 C 381.600 191.592,381.428 190.400,381.200 190.400 C 380.978 190.400,380.800 189.341,380.800 188.024 C 380.800 186.717,380.620 185.536,380.400 185.400 C 380.180 185.264,380.000 184.274,380.000 183.200 C 380.000 182.126,379.820 181.136,379.600 181.000 C 379.380 180.864,379.200 179.953,379.200 178.976 C 379.200 177.999,379.020 177.200,378.800 177.200 C 378.580 177.200,378.400 176.480,378.400 175.600 C 378.400 174.720,378.220 174.000,378.000 174.000 C 377.780 174.000,377.600 173.280,377.600 172.400 C 377.600 171.520,377.420 170.800,377.200 170.800 C 376.980 170.800,376.800 170.080,376.800 169.200 C 376.800 168.320,376.620 167.600,376.400 167.600 C 376.180 167.600,376.000 167.060,376.000 166.400 C 376.000 165.740,375.820 165.200,375.600 165.200 C 375.380 165.200,375.200 164.669,375.200 164.020 C 375.200 162.697,372.398 153.874,371.912 153.667 C 371.740 153.593,371.600 153.186,371.600 152.761 C 371.600 152.337,371.441 151.677,371.247 151.295 C 371.052 150.913,370.718 150.150,370.503 149.600 C 370.289 149.050,369.728 147.818,369.257 146.862 C 368.786 145.906,368.400 144.781,368.400 144.362 C 368.400 143.943,368.220 143.600,368.000 143.600 C 367.780 143.600,367.600 143.240,367.600 142.800 C 367.600 142.360,367.420 142.000,367.200 142.000 C 366.980 142.000,366.800 141.640,366.800 141.200 C 366.800 140.760,366.620 140.400,366.400 140.400 C 366.180 140.400,366.000 140.040,366.000 139.600 C 366.000 139.160,365.820 138.800,365.600 138.800 C 365.380 138.800,365.200 138.440,365.200 138.000 C 365.200 137.560,365.020 137.200,364.800 137.200 C 364.580 137.200,364.400 136.840,364.400 136.400 C 364.400 135.960,364.220 135.600,364.000 135.600 C 363.780 135.600,363.600 135.366,363.600 135.080 C 363.600 134.344,362.659 132.407,362.300 132.403 C 362.135 132.401,362.000 132.040,362.000 131.600 C 362.000 131.160,361.820 130.800,361.600 130.800 C 361.380 130.800,361.200 130.440,361.200 130.000 C 361.200 129.560,361.064 129.200,360.898 129.200 C 360.731 129.200,360.337 128.615,360.022 127.900 C 359.707 127.185,359.213 126.362,358.925 126.071 C 358.636 125.781,358.400 125.196,358.400 124.771 C 358.400 124.347,358.220 124.000,358.000 124.000 C 357.780 124.000,357.600 123.764,357.600 123.475 C 357.600 123.187,357.240 122.564,356.800 122.092 C 356.360 121.620,356.000 120.956,356.000 120.617 C 356.000 120.278,355.842 120.000,355.649 120.000 C 355.455 120.000,355.073 119.460,354.800 118.800 C 354.527 118.140,354.145 117.600,353.951 117.600 C 353.758 117.600,353.600 117.364,353.600 117.075 C 353.600 116.787,353.240 116.164,352.800 115.692 C 352.360 115.220,351.997 114.691,351.993 114.517 C 351.985 114.162,350.274 111.944,348.900 110.506 C 348.405 109.988,348.000 109.374,348.000 109.142 C 348.000 108.911,347.460 108.217,346.800 107.600 C 346.140 106.983,345.600 106.267,345.600 106.008 C 345.600 105.749,344.880 104.846,344.000 104.000 C 343.120 103.154,342.400 102.256,342.400 102.003 C 342.400 101.750,342.175 101.310,341.900 101.025 C 341.625 100.740,340.680 99.644,339.800 98.590 C 337.561 95.908,321.711 80.056,319.812 78.600 C 318.951 77.940,317.839 76.995,317.342 76.500 C 316.844 76.005,316.248 75.600,316.019 75.600 C 315.789 75.600,314.859 74.880,313.952 74.000 C 313.045 73.120,312.127 72.400,311.912 72.400 C 311.697 72.400,311.017 71.860,310.400 71.200 C 309.783 70.540,309.081 70.000,308.840 70.000 C 308.598 70.000,308.400 69.862,308.400 69.694 C 308.400 69.526,307.680 68.944,306.800 68.400 C 305.920 67.856,305.200 67.274,305.200 67.106 C 305.200 66.938,304.975 66.800,304.700 66.799 C 304.425 66.799,303.570 66.259,302.800 65.600 C 302.030 64.941,301.175 64.401,300.900 64.401 C 300.625 64.400,300.400 64.265,300.400 64.099 C 300.400 63.934,299.545 63.353,298.500 62.809 C 297.455 62.265,296.510 61.707,296.400 61.570 C 295.472 60.410,289.848 59.932,288.225 60.874 M74.200 332.639 C 71.861 334.700,68.867 336.907,66.691 338.175 C 63.282 340.161,63.229 340.026,70.125 346.889 C 76.797 353.528,81.094 357.459,82.710 358.400 C 83.277 358.730,84.451 359.675,85.319 360.500 C 86.186 361.325,87.073 362.000,87.288 362.000 C 87.503 362.000,88.183 362.540,88.800 363.200 C 89.417 363.860,90.137 364.400,90.400 364.400 C 90.663 364.400,91.383 364.940,92.000 365.600 C 92.617 366.260,93.319 366.800,93.560 366.800 C 93.802 366.800,94.000 366.980,94.000 367.200 C 94.000 367.420,94.270 367.600,94.600 367.600 C 94.930 367.600,95.200 367.780,95.200 368.000 C 95.200 368.220,95.470 368.400,95.800 368.400 C 96.130 368.400,96.400 368.550,96.400 368.732 C 96.400 368.915,96.895 369.320,97.500 369.632 C 98.105 369.945,98.949 370.515,99.375 370.900 C 99.802 371.285,100.372 371.600,100.642 371.600 C 100.912 371.600,101.193 371.735,101.267 371.900 C 101.499 372.422,106.292 375.200,106.960 375.200 C 107.312 375.200,107.600 375.380,107.600 375.600 C 107.600 375.820,107.836 376.000,108.125 376.000 C 108.413 376.000,108.998 376.325,109.425 376.722 C 109.851 377.120,110.785 377.703,111.500 378.020 C 112.215 378.336,112.800 378.731,112.800 378.898 C 112.800 379.064,113.160 379.200,113.600 379.200 C 114.040 379.200,114.400 379.380,114.400 379.600 C 114.400 379.820,114.760 380.000,115.200 380.000 C 115.640 380.000,116.000 380.180,116.000 380.400 C 116.000 380.620,116.360 380.800,116.800 380.800 C 117.240 380.800,117.600 380.980,117.600 381.200 C 117.600 381.420,117.960 381.600,118.400 381.600 C 118.840 381.600,119.200 381.780,119.200 382.000 C 119.200 382.220,119.560 382.400,120.000 382.400 C 120.440 382.400,120.800 382.580,120.800 382.800 C 120.800 383.020,121.160 383.200,121.600 383.200 C 122.040 383.200,122.400 383.380,122.400 383.600 C 122.400 383.820,122.760 384.000,123.200 384.000 C 123.640 384.000,124.000 384.180,124.000 384.400 C 124.000 384.620,124.360 384.800,124.800 384.800 C 125.240 384.800,125.600 384.980,125.600 385.200 C 125.600 385.420,125.955 385.600,126.388 385.600 C 126.821 385.600,127.817 385.960,128.600 386.400 C 129.383 386.840,130.379 387.200,130.812 387.200 C 131.245 387.200,131.600 387.380,131.600 387.600 C 131.600 387.820,131.949 388.000,132.376 388.000 C 132.803 388.000,133.264 388.180,133.400 388.400 C 133.536 388.620,134.072 388.800,134.590 388.800 C 135.109 388.800,135.593 388.941,135.667 389.113 C 135.853 389.552,142.246 391.600,143.428 391.600 C 143.962 391.600,144.400 391.780,144.400 392.000 C 144.400 392.220,144.940 392.400,145.600 392.400 C 146.260 392.400,146.800 392.580,146.800 392.800 C 146.800 393.020,147.430 393.200,148.200 393.200 C 148.970 393.200,149.600 393.380,149.600 393.600 C 149.600 393.820,150.129 394.000,150.776 394.000 C 151.423 394.000,152.064 394.180,152.200 394.400 C 152.336 394.620,153.067 394.800,153.824 394.800 C 154.581 394.800,155.200 394.980,155.200 395.200 C 155.200 395.420,155.909 395.600,156.776 395.600 C 157.643 395.600,158.464 395.780,158.600 396.000 C 158.736 396.220,159.647 396.400,160.624 396.400 C 161.601 396.400,162.400 396.580,162.400 396.800 C 162.400 397.020,163.210 397.200,164.200 397.200 C 165.190 397.200,166.000 397.380,166.000 397.600 C 166.000 397.822,167.067 398.000,168.400 398.000 C 169.733 398.000,170.800 398.178,170.800 398.400 C 170.800 398.628,171.989 398.800,173.567 398.800 C 175.424 398.800,176.388 398.964,176.500 399.300 C 176.631 399.692,181.672 399.800,199.913 399.800 C 217.977 399.800,223.271 399.689,223.660 399.300 C 223.954 399.006,225.197 398.800,226.680 398.800 C 228.093 398.800,229.200 398.624,229.200 398.400 C 229.200 398.178,230.267 398.000,231.600 398.000 C 232.933 398.000,234.000 397.822,234.000 397.600 C 234.000 397.380,234.900 397.200,236.000 397.200 C 237.100 397.200,238.000 397.020,238.000 396.800 C 238.000 396.580,238.810 396.400,239.800 396.400 C 240.790 396.400,241.600 396.220,241.600 396.000 C 241.600 395.780,242.320 395.600,243.200 395.600 C 244.080 395.600,244.800 395.420,244.800 395.200 C 244.800 394.980,245.520 394.800,246.400 394.800 C 247.280 394.800,248.000 394.620,248.000 394.400 C 248.000 394.180,248.540 394.000,249.200 394.000 C 249.860 394.000,250.400 393.820,250.400 393.600 C 250.400 393.380,251.120 393.200,252.000 393.200 C 252.880 393.200,253.600 393.020,253.600 392.800 C 253.600 392.580,254.140 392.400,254.800 392.400 C 255.460 392.400,256.000 392.237,256.000 392.038 C 256.000 391.838,256.900 391.551,258.000 391.400 C 259.099 391.249,260.100 390.962,260.223 390.763 C 260.346 390.563,260.799 390.400,261.229 390.400 C 261.659 390.400,262.368 390.220,262.805 390.000 C 263.242 389.780,263.958 389.420,264.395 389.200 C 264.832 388.980,265.552 388.800,265.995 388.800 C 266.438 388.800,266.800 388.620,266.800 388.400 C 266.800 388.180,267.239 388.000,267.776 388.000 C 268.313 388.000,268.864 387.820,269.000 387.600 C 269.136 387.380,269.597 387.200,270.024 387.200 C 270.451 387.200,270.800 387.063,270.800 386.895 C 270.800 386.727,271.199 386.412,271.687 386.195 C 275.805 384.363,275.805 375.237,271.687 373.405 C 271.199 373.188,270.800 372.873,270.800 372.705 C 270.800 372.537,269.090 372.400,267.000 372.400 C 264.733 372.400,263.200 372.561,263.200 372.800 C 263.200 373.020,262.750 373.200,262.200 373.200 C 261.650 373.200,261.200 373.380,261.200 373.600 C 261.200 373.820,260.750 374.000,260.200 374.000 C 259.650 374.000,259.200 374.180,259.200 374.400 C 259.200 374.620,258.851 374.800,258.424 374.800 C 257.997 374.800,257.536 374.980,257.400 375.200 C 257.264 375.420,256.713 375.600,256.176 375.600 C 255.639 375.600,255.200 375.780,255.200 376.000 C 255.200 376.220,254.660 376.400,254.000 376.400 C 253.340 376.400,252.800 376.559,252.800 376.754 C 252.800 376.949,251.813 377.231,250.606 377.382 C 249.400 377.533,248.309 377.823,248.183 378.028 C 248.056 378.233,247.434 378.400,246.800 378.400 C 246.166 378.400,245.548 378.560,245.427 378.756 C 245.306 378.951,244.576 379.221,243.804 379.356 C 243.032 379.490,241.768 379.710,240.996 379.844 C 240.224 379.979,239.494 380.249,239.373 380.444 C 239.252 380.640,238.454 380.800,237.600 380.800 C 236.746 380.800,235.936 380.980,235.800 381.200 C 235.664 381.420,234.854 381.600,234.000 381.600 C 233.146 381.600,232.336 381.780,232.200 382.000 C 232.064 382.220,231.074 382.400,230.000 382.400 C 228.926 382.400,227.936 382.580,227.800 382.800 C 227.664 383.020,226.494 383.200,225.200 383.200 C 223.906 383.200,222.736 383.380,222.600 383.600 C 222.464 383.820,221.024 384.000,219.400 384.000 C 217.776 384.000,216.336 384.180,216.200 384.400 C 216.051 384.642,213.204 384.800,209.000 384.800 C 204.796 384.800,201.949 384.958,201.800 385.200 C 201.664 385.420,200.393 385.600,198.976 385.600 C 197.525 385.600,196.400 385.425,196.400 385.200 C 196.400 384.951,194.067 384.800,190.200 384.800 C 186.333 384.800,184.000 384.649,184.000 384.400 C 184.000 384.167,182.667 384.000,180.800 384.000 C 178.933 384.000,177.600 383.833,177.600 383.600 C 177.600 383.378,176.541 383.200,175.224 383.200 C 173.917 383.200,172.736 383.020,172.600 382.800 C 172.464 382.580,171.463 382.400,170.376 382.400 C 169.289 382.400,168.400 382.220,168.400 382.000 C 168.400 381.780,167.500 381.600,166.400 381.600 C 165.300 381.600,164.400 381.420,164.400 381.200 C 164.400 380.980,163.680 380.800,162.800 380.800 C 161.920 380.800,161.200 380.620,161.200 380.400 C 161.200 380.180,160.491 380.000,159.624 380.000 C 158.757 380.000,157.936 379.820,157.800 379.600 C 157.664 379.380,157.111 379.200,156.571 379.200 C 156.031 379.200,155.277 379.042,154.895 378.849 C 153.694 378.242,151.433 377.617,149.470 377.348 C 148.430 377.205,147.482 376.933,147.365 376.744 C 147.248 376.555,146.803 376.400,146.376 376.400 C 145.949 376.400,145.600 376.220,145.600 376.000 C 145.600 375.780,145.060 375.600,144.400 375.600 C 143.740 375.600,143.200 375.420,143.200 375.200 C 143.200 374.980,142.838 374.800,142.395 374.800 C 141.952 374.800,141.232 374.620,140.795 374.400 C 140.358 374.180,139.642 373.820,139.205 373.600 C 138.768 373.380,138.138 373.200,137.805 373.200 C 137.472 373.200,137.200 373.020,137.200 372.800 C 137.200 372.580,136.851 372.400,136.424 372.400 C 135.997 372.400,135.536 372.220,135.400 372.000 C 135.264 371.780,134.713 371.600,134.176 371.600 C 133.639 371.600,133.200 371.420,133.200 371.200 C 133.200 370.980,132.840 370.800,132.400 370.800 C 131.960 370.800,131.600 370.620,131.600 370.400 C 131.600 370.180,131.240 370.000,130.800 370.000 C 130.360 370.000,130.000 369.820,130.000 369.600 C 130.000 369.380,129.640 369.200,129.200 369.200 C 128.760 369.200,128.400 369.020,128.400 368.800 C 128.400 368.580,128.148 368.400,127.841 368.400 C 127.533 368.400,126.318 367.884,125.141 367.254 C 123.963 366.623,122.190 365.678,121.200 365.154 C 120.210 364.629,119.340 364.065,119.267 363.900 C 119.193 363.735,118.788 363.600,118.367 363.600 C 117.945 363.600,117.600 363.441,117.600 363.247 C 117.600 363.052,117.285 362.793,116.900 362.671 C 116.090 362.415,113.896 361.126,113.596 360.732 C 113.484 360.584,112.899 360.340,112.296 360.188 C 111.693 360.037,111.200 359.753,111.200 359.557 C 111.200 359.360,110.880 359.200,110.488 359.200 C 110.097 359.200,109.517 358.840,109.200 358.400 C 108.883 357.960,108.393 357.600,108.112 357.600 C 107.830 357.600,107.600 357.420,107.600 357.200 C 107.600 356.980,107.330 356.800,107.000 356.800 C 106.670 356.800,106.400 356.620,106.400 356.400 C 106.400 356.180,106.170 356.000,105.888 356.000 C 105.607 356.000,105.117 355.640,104.800 355.200 C 104.483 354.760,103.991 354.400,103.708 354.400 C 103.425 354.400,102.628 353.860,101.937 353.200 C 101.246 352.540,100.526 352.000,100.337 352.000 C 100.148 352.000,99.428 351.460,98.737 350.800 C 98.046 350.140,97.310 349.600,97.101 349.600 C 96.892 349.600,96.244 349.098,95.660 348.485 C 95.077 347.871,94.021 346.963,93.312 346.466 C 92.604 345.969,91.524 345.075,90.912 344.478 C 90.301 343.882,89.010 342.765,88.044 341.997 C 87.078 341.229,84.147 338.485,81.532 335.900 C 76.194 330.625,76.389 330.711,74.200 332.639 " stroke="none" fill="#444c64" fill-rule="evenodd"></path></g></svg>